#!OML:ASF I:\Random Stuff\random\construction\7_22_03\Session 2\subj1.ASF
:FULLY-SPECIFIED
:DEGREES
392
root -5.80044 17.9178 3.65621 18.4708 47.0577 7.35651
lowerback 13.8173 -0.980548 7.93948
upperback 6.45262 0.059737 5.55803
thorax -0.914553 0.203954 1.35591
lowerneck -20.0842 -5.94872 -5.83006
upperneck 30.9203 -9.29516 8.78162
head 14.8308 -3.29869 2.90863
rclavicle -4.29375e-014 -2.22639e-014
rhumerus -5.54949 6.29024 -66.9953
rradius 40.3438
rwrist 13.854
rhand -47.2712 61.6581
rfingers 7.12502
rthumb -19.968 32.6641
lclavicle -4.29375e-014 -2.22639e-014
lhumerus -9.35493 -41.9832 73.2355
lradius 109.151
lwrist 36.0764
lhand -5.79012 49.0098
lfingers 7.12502
lthumb -159.966 257.997
rfemur -23.7061 5.58073 17.1608
rtibia 22.0213
rfoot -10.4795 -8.06034
rtoes -10.3683
lfemur -24.3892 2.36097 -19.5468
ltibia 26.1121
lfoot -9.15763 4.65132
ltoes -16.6482
393
root -5.8337 17.9284 3.64646 19.7519 47.3787 8.47162
lowerback 14.0533 -0.859431 7.93505
upperback 6.53119 0.250501 5.66095
thorax -0.951882 0.30039 1.44121
lowerneck -19.9033 -6.11024 -5.74743
upperneck 30.3218 -9.4659 8.64706
head 14.5219 -3.39987 2.78952
rclavicle -4.6118e-014 -1.27222e-014
rhumerus -4.94376 5.23396 -66.7132
rradius 40.0621
rwrist 14.0936
rhand -47.3207 63.2335
rfingers 7.12502
rthumb -20.0156 34.2444
lclavicle -4.6118e-014 -1.27222e-014
lhumerus -10.4798 -43.9866 73.9947
lradius 107.815
lwrist 36.5914
lhand -5.73519 49.7555
lfingers 7.12502
lthumb -159.913 258.737
rfemur -24.5878 5.24281 16.3736
rtibia 22.657
rfoot -10.5769 -8.26879
rtoes -10.4423
lfemur -24.3576 2.37614 -20.3534
ltibia 26.0994
lfoot -8.8406 4.27515
ltoes -17.1764
394
root -5.86516 17.9404 3.63654 20.8619 47.7091 9.42064
lowerback 14.3658 -0.829464 7.95918
upperback 6.62157 0.341643 5.87183
thorax -1.02094 0.347467 1.63976
lowerneck -19.492 -6.04376 -5.72904
upperneck 29.6021 -9.2092 8.29979
head 14.0616 -3.36823 2.68066
rclavicle -6.99722e-014 -6.99722e-014
rhumerus -4.31599 4.6567 -66.3419
rradius 40.1655
rwrist 13.9514
rhand -47.5558 64.6418
rfingers 7.12502
rthumb -20.2416 35.6764
lclavicle -6.99722e-014 -6.99722e-014
lhumerus -11.7582 -45.5789 75.035
lradius 106.122
lwrist 37.4379
lhand -6.2394 50.6567
lfingers 7.12502
lthumb -160.398 259.688
rfemur -25.3768 5.04582 15.7097
rtibia 23.2644
rfoot -10.6403 -8.59497
rtoes -10.4606
lfemur -24.2535 2.22784 -20.9547
ltibia 26.0429
lfoot -8.48541 4.08953
ltoes -17.743
395
root -5.90088 17.9519 3.62237 22.0039 48.1202 10.4195
lowerback 14.7691 -0.83347 7.95841
upperback 6.67055 0.403198 6.11087
thorax -1.18402 0.376499 1.88696
lowerneck -19.02 -6.03951 -5.98762
upperneck 28.747 -9.05376 8.26989
head 13.5884 -3.37146 2.72882
rclavicle 3.33958e-014 -3.81667e-014
rhumerus -3.76948 4.22935 -65.9392
rradius 40.596
rwrist 13.4828
rhand -47.5851 65.5932
rfingers 7.12502
rthumb -20.2697 36.6309
lclavicle 3.33958e-014 -3.81667e-014
lhumerus -13.1318 -46.9554 76.2929
lradius 104.166
lwrist 38.2876
lhand -6.60986 51.7002
lfingers 7.12502
lthumb -160.754 260.768
rfemur -26.0993 4.87209 15.0255
rtibia 23.7784
rfoot -10.6797 -9.02966
rtoes -9.71257
lfemur -24.1869 1.96225 -21.5117
ltibia 25.9633
lfoot -8.05878 3.75284
ltoes -17.2635
396
root -5.94221 17.9627 3.60483 23.2916 48.6866 11.5631
lowerback 15.2333 -0.86384 7.98804
upperback 6.63554 0.447708 6.29122
thorax -1.46872 0.393718 2.0582
lowerneck -19.9279 -6.53606 -6.10873
upperneck 29.0926 -9.75955 8.37227
head 14.0146 -3.63646 2.64798
rclavicle 1.90833e-014 -1.24042e-013
rhumerus -3.33312 3.68816 -65.6182
rradius 41.1458
rwrist 13.1213
rhand -47.2361 66.1512
rfingers 7.12502
rthumb -19.9342 37.1536
lclavicle 1.90833e-014 -1.24042e-013
lhumerus -14.6561 -48.2616 77.735
lradius 101.967
lwrist 39.0441
lhand -6.65116 52.7478
lfingers 7.12502
lthumb -160.794 261.819
rfemur -26.7868 4.60743 14.3022
rtibia 24.1929
rfoot -10.5727 -9.6019
rtoes -9.04514
lfemur -24.2152 1.53034 -22.0625
ltibia 25.851
lfoot -7.51033 3.36473
ltoes -16.715
